<mxfile host="app.diagrams.net" agent="Mozilla/5.0 (Windows NT 10.0; Win64; x64) AppleWebKit/537.36 (KHTML, like Gecko) Chrome/132.0.0.0 Safari/537.36 OPR/117.0.0.0" version="26.1.0">
  <diagram name="Strona-1" id="KtNOUa7axjSKNUjDW1uX">
    <mxGraphModel dx="795" dy="430" grid="1" gridSize="10" guides="1" tooltips="1" connect="1" arrows="1" fold="1" page="1" pageScale="1" pageWidth="827" pageHeight="1169" math="0" shadow="0">
      <root>
        <mxCell id="0" />
        <mxCell id="1" parent="0" />
        <mxCell id="LP7u-XgDoCvqe3UkHR-a-1" value="Start" style="ellipse;whiteSpace=wrap;html=1;" vertex="1" parent="1">
          <mxGeometry x="354" width="120" height="80" as="geometry" />
        </mxCell>
        <mxCell id="LP7u-XgDoCvqe3UkHR-a-12" style="edgeStyle=orthogonalEdgeStyle;rounded=0;orthogonalLoop=1;jettySize=auto;html=1;entryX=0.5;entryY=0;entryDx=0;entryDy=0;" edge="1" parent="1" source="LP7u-XgDoCvqe3UkHR-a-2" target="LP7u-XgDoCvqe3UkHR-a-6">
          <mxGeometry relative="1" as="geometry" />
        </mxCell>
        <mxCell id="LP7u-XgDoCvqe3UkHR-a-2" value="&lt;strong style=&quot;color: rgb(248, 250, 255); font-family: Inter, system-ui, -apple-system, BlinkMacSystemFont, &amp;quot;Segoe UI&amp;quot;, Roboto, &amp;quot;Noto Sans&amp;quot;, Ubuntu, Cantarell, &amp;quot;Helvetica Neue&amp;quot;, Oxygen, &amp;quot;Open Sans&amp;quot;, sans-serif; font-size: 16.002px; text-align: left; background-color: rgb(41, 42, 45);&quot;&gt;Wczytaj n&lt;/strong&gt;" style="rounded=0;whiteSpace=wrap;html=1;" vertex="1" parent="1">
          <mxGeometry x="360" y="120" width="120" height="60" as="geometry" />
        </mxCell>
        <mxCell id="LP7u-XgDoCvqe3UkHR-a-5" style="edgeStyle=orthogonalEdgeStyle;rounded=0;orthogonalLoop=1;jettySize=auto;html=1;entryX=0.451;entryY=-0.023;entryDx=0;entryDy=0;entryPerimeter=0;" edge="1" parent="1" source="LP7u-XgDoCvqe3UkHR-a-1" target="LP7u-XgDoCvqe3UkHR-a-2">
          <mxGeometry relative="1" as="geometry" />
        </mxCell>
        <mxCell id="LP7u-XgDoCvqe3UkHR-a-8" style="edgeStyle=orthogonalEdgeStyle;rounded=0;orthogonalLoop=1;jettySize=auto;html=1;entryX=1;entryY=0.5;entryDx=0;entryDy=0;" edge="1" parent="1" source="LP7u-XgDoCvqe3UkHR-a-6" target="LP7u-XgDoCvqe3UkHR-a-7">
          <mxGeometry relative="1" as="geometry" />
        </mxCell>
        <mxCell id="LP7u-XgDoCvqe3UkHR-a-17" style="edgeStyle=orthogonalEdgeStyle;rounded=0;orthogonalLoop=1;jettySize=auto;html=1;entryX=0;entryY=0.5;entryDx=0;entryDy=0;" edge="1" parent="1" source="LP7u-XgDoCvqe3UkHR-a-6" target="LP7u-XgDoCvqe3UkHR-a-16">
          <mxGeometry relative="1" as="geometry" />
        </mxCell>
        <mxCell id="LP7u-XgDoCvqe3UkHR-a-6" value="&lt;strong style=&quot;color: rgb(248, 250, 255); font-family: Inter, system-ui, -apple-system, BlinkMacSystemFont, &amp;quot;Segoe UI&amp;quot;, Roboto, &amp;quot;Noto Sans&amp;quot;, Ubuntu, Cantarell, &amp;quot;Helvetica Neue&amp;quot;, Oxygen, &amp;quot;Open Sans&amp;quot;, sans-serif; font-size: 16.002px; text-align: left; background-color: rgb(41, 42, 45);&quot;&gt;Czy n &amp;gt; 0&lt;/strong&gt;" style="rounded=0;whiteSpace=wrap;html=1;" vertex="1" parent="1">
          <mxGeometry x="360" y="200" width="120" height="60" as="geometry" />
        </mxCell>
        <mxCell id="LP7u-XgDoCvqe3UkHR-a-14" style="edgeStyle=orthogonalEdgeStyle;rounded=0;orthogonalLoop=1;jettySize=auto;html=1;entryX=1;entryY=0.5;entryDx=0;entryDy=0;" edge="1" parent="1" source="LP7u-XgDoCvqe3UkHR-a-7" target="LP7u-XgDoCvqe3UkHR-a-13">
          <mxGeometry relative="1" as="geometry" />
        </mxCell>
        <mxCell id="LP7u-XgDoCvqe3UkHR-a-7" value="napisz &quot; liczba musi być większa od 0&quot;" style="rounded=0;whiteSpace=wrap;html=1;" vertex="1" parent="1">
          <mxGeometry x="210" y="200" width="120" height="60" as="geometry" />
        </mxCell>
        <mxCell id="LP7u-XgDoCvqe3UkHR-a-9" value="&lt;h1 style=&quot;margin-top: 0px;&quot;&gt;&lt;br&gt;&lt;/h1&gt;" style="text;html=1;whiteSpace=wrap;overflow=hidden;rounded=0;" vertex="1" parent="1">
          <mxGeometry x="340" y="210" width="20" height="50" as="geometry" />
        </mxCell>
        <mxCell id="LP7u-XgDoCvqe3UkHR-a-11" value="&lt;font style=&quot;font-size: 6px;&quot;&gt;Nie&lt;/font&gt;" style="text;html=1;align=center;verticalAlign=middle;whiteSpace=wrap;rounded=0;" vertex="1" parent="1">
          <mxGeometry x="334" y="200" width="20" height="20" as="geometry" />
        </mxCell>
        <mxCell id="LP7u-XgDoCvqe3UkHR-a-13" value="Koniec&lt;div&gt;&lt;br&gt;&lt;/div&gt;" style="ellipse;whiteSpace=wrap;html=1;" vertex="1" parent="1">
          <mxGeometry x="70" y="190" width="120" height="80" as="geometry" />
        </mxCell>
        <mxCell id="LP7u-XgDoCvqe3UkHR-a-15" value="&lt;span style=&quot;font-size: 6px;&quot;&gt;Tak&lt;/span&gt;" style="text;html=1;align=center;verticalAlign=middle;whiteSpace=wrap;rounded=0;" vertex="1" parent="1">
          <mxGeometry x="480" y="200" width="20" height="20" as="geometry" />
        </mxCell>
        <mxCell id="LP7u-XgDoCvqe3UkHR-a-16" value="ciag=[]" style="rounded=0;whiteSpace=wrap;html=1;" vertex="1" parent="1">
          <mxGeometry x="520" y="200" width="120" height="60" as="geometry" />
        </mxCell>
        <mxCell id="LP7u-XgDoCvqe3UkHR-a-18" value="&lt;p data-pm-slice=&quot;1 1 [&amp;quot;ordered_list&amp;quot;,{&amp;quot;spread&amp;quot;:false,&amp;quot;startingNumber&amp;quot;:1,&amp;quot;start&amp;quot;:40,&amp;quot;end&amp;quot;:608},&amp;quot;regular_list_item&amp;quot;,{&amp;quot;start&amp;quot;:258,&amp;quot;end&amp;quot;:364}]&quot;&gt;&lt;strong&gt;Pętla (od &lt;/strong&gt;&lt;code&gt;&lt;strong&gt;x = 0&lt;/strong&gt;&lt;/code&gt;&lt;strong&gt; do &lt;/strong&gt;&lt;code&gt;&lt;strong&gt;n-1&lt;/strong&gt;&lt;/code&gt;&lt;strong&gt;)&lt;/strong&gt;&lt;/p&gt;" style="rounded=0;whiteSpace=wrap;html=1;" vertex="1" parent="1">
          <mxGeometry x="520" y="280" width="120" height="60" as="geometry" />
        </mxCell>
        <mxCell id="LP7u-XgDoCvqe3UkHR-a-19" value="&lt;div style=&quot;text-align: left;&quot;&gt;x&amp;lt;n?&lt;/div&gt;" style="rounded=0;whiteSpace=wrap;html=1;" vertex="1" parent="1">
          <mxGeometry x="520" y="360" width="120" height="60" as="geometry" />
        </mxCell>
        <mxCell id="LP7u-XgDoCvqe3UkHR-a-21" value="&#xa;&lt;span style=&quot;color: rgb(248, 250, 255); font-family: Inter, system-ui, -apple-system, BlinkMacSystemFont, &amp;quot;Segoe UI&amp;quot;, Roboto, &amp;quot;Noto Sans&amp;quot;, Ubuntu, Cantarell, &amp;quot;Helvetica Neue&amp;quot;, Oxygen, &amp;quot;Open Sans&amp;quot;, sans-serif; font-size: 16.002px; font-style: normal; font-variant-ligatures: normal; font-variant-caps: normal; font-weight: 400; letter-spacing: normal; orphans: 2; text-align: left; text-indent: 0px; text-transform: none; widows: 2; word-spacing: 0px; -webkit-text-stroke-width: 0px; white-space: normal; background-color: rgb(41, 42, 45); text-decoration-thickness: initial; text-decoration-style: initial; text-decoration-color: initial; display: inline !important; float: none;&quot;&gt;Wczytaj a_x&lt;/span&gt;&#xa;&#xa;" style="rounded=0;whiteSpace=wrap;html=1;" vertex="1" parent="1">
          <mxGeometry x="420" y="440" width="120" height="60" as="geometry" />
        </mxCell>
        <mxCell id="LP7u-XgDoCvqe3UkHR-a-22" value="&lt;span style=&quot;text-align: left;&quot;&gt;Wczytaj szukaną liczbę&lt;/span&gt;" style="rounded=0;whiteSpace=wrap;html=1;" vertex="1" parent="1">
          <mxGeometry x="620" y="440" width="120" height="60" as="geometry" />
        </mxCell>
        <mxCell id="LP7u-XgDoCvqe3UkHR-a-23" value="tak" style="text;html=1;align=center;verticalAlign=middle;whiteSpace=wrap;rounded=0;" vertex="1" parent="1">
          <mxGeometry x="500" y="420" width="20" height="20" as="geometry" />
        </mxCell>
        <mxCell id="LP7u-XgDoCvqe3UkHR-a-24" value="nie" style="text;html=1;align=center;verticalAlign=middle;whiteSpace=wrap;rounded=0;" vertex="1" parent="1">
          <mxGeometry x="640" y="420" width="20" height="20" as="geometry" />
        </mxCell>
        <mxCell id="LP7u-XgDoCvqe3UkHR-a-25" style="edgeStyle=orthogonalEdgeStyle;rounded=0;orthogonalLoop=1;jettySize=auto;html=1;entryX=0.417;entryY=0;entryDx=0;entryDy=0;entryPerimeter=0;" edge="1" parent="1" source="LP7u-XgDoCvqe3UkHR-a-19" target="LP7u-XgDoCvqe3UkHR-a-21">
          <mxGeometry relative="1" as="geometry">
            <Array as="points">
              <mxPoint x="470" y="380" />
            </Array>
          </mxGeometry>
        </mxCell>
        <mxCell id="LP7u-XgDoCvqe3UkHR-a-26" style="edgeStyle=orthogonalEdgeStyle;rounded=0;orthogonalLoop=1;jettySize=auto;html=1;entryX=0.532;entryY=0.014;entryDx=0;entryDy=0;entryPerimeter=0;" edge="1" parent="1" source="LP7u-XgDoCvqe3UkHR-a-19" target="LP7u-XgDoCvqe3UkHR-a-22">
          <mxGeometry relative="1" as="geometry">
            <Array as="points">
              <mxPoint x="684" y="380" />
            </Array>
          </mxGeometry>
        </mxCell>
        <mxCell id="LP7u-XgDoCvqe3UkHR-a-27" value="x &lt; n?" style="text;whiteSpace=wrap;" vertex="1" parent="1">
          <mxGeometry x="690" y="330" width="160" height="40" as="geometry" />
        </mxCell>
      </root>
    </mxGraphModel>
  </diagram>
</mxfile>
